<?xml version="1.0" standalone="no"?>
<!DOCTYPE svg PUBLIC "-//W3C//DTD SVG 20010904//EN"
 "http://www.w3.org/TR/2001/REC-SVG-20010904/DTD/svg10.dtd">
<svg version="1.0" xmlns="http://www.w3.org/2000/svg"
 width="500.000000pt" height="500.000000pt" viewBox="0 0 500.000000 500.000000"
 preserveAspectRatio="xMidYMid meet">
<metadata>
Created by potrace 1.14, written by Peter Selinger 2001-2017
</metadata>
<g transform="translate(0.000000,500.000000) scale(0.100000,-0.100000)"
fill="#000000" stroke="none">
<path d="M2202 4949 c-62 -8 -106 -14 -172 -25 -145 -24 -343 -88 -520 -167
-297 -132 -536 -300 -780 -546 -221 -222 -382 -450 -508 -721 -38 -82 -90
-217 -97 -253 -2 -9 -6 -21 -9 -25 -8 -13 -65 -241 -71 -287 -4 -22 -8 -51
-11 -65 -9 -53 -17 -190 -18 -300 -1 -191 20 -364 63 -530 11 -41 31 -131 45
-200 73 -361 219 -671 452 -960 234 -290 609 -577 904 -690 47 -18 94 -36 105
-41 56 -23 224 -63 355 -85 139 -23 158 -25 345 -28 155 -3 226 1 370 19 81
11 92 13 122 19 15 4 42 9 58 12 17 3 80 18 140 34 546 146 1056 471 1395 890
25 30 48 57 51 60 20 17 176 262 223 350 119 227 226 534 260 750 3 19 8 46
11 60 10 46 22 148 33 284 12 139 4 478 -13 546 -2 8 -6 35 -9 60 -7 49 -8 56
-32 174 -18 89 -99 345 -114 360 -6 6 -14 5 -24 -3 -12 -10 -10 -26 20 -111
29 -88 57 -183 70 -245 12 -54 25 -124 30 -155 2 -19 6 -44 9 -55 19 -92 28
-494 13 -640 -13 -134 -37 -275 -73 -429 -12 -53 -71 -231 -102 -311 -226
-577 -650 -1040 -1218 -1330 -210 -108 -484 -205 -674 -240 -14 -3 -37 -7 -51
-10 -14 -3 -38 -7 -55 -9 -16 -3 -46 -7 -65 -10 -19 -3 -53 -9 -75 -12 -22 -3
-128 -7 -235 -9 -236 -3 -406 15 -600 65 -218 55 -395 135 -591 266 -398 265
-703 629 -875 1044 -58 142 -67 184 -16 83 166 -333 472 -678 797 -899 173
-118 416 -240 600 -302 99 -33 354 -97 425 -106 128 -17 188 -21 330 -21 138
0 303 10 319 19 3 2 29 6 58 10 132 16 374 87 553 163 487 208 889 557 1158
1003 136 227 251 537 288 775 4 28 9 57 10 65 27 132 21 597 -12 870 -51 426
-239 886 -484 1180 -76 92 -93 110 -160 175 -144 140 -298 243 -493 330 -81
35 -248 86 -327 100 -19 3 -60 10 -90 15 -62 12 -189 19 -395 24 -77 2 -151 7
-165 11 -36 10 -404 13 -478 4z m338 -47 c-8 -5 -47 -14 -87 -21 -134 -21
-414 -108 -608 -189 -198 -82 -494 -258 -685 -406 -203 -158 -416 -385 -586
-621 -297 -416 -473 -892 -487 -1322 -2 -66 -13 -69 -20 -6 -6 65 -1 442 7
473 3 14 9 45 12 70 8 68 10 79 33 170 109 434 331 821 660 1148 387 384 886
635 1386 698 28 4 51 7 53 9 1 1 78 3 170 4 97 0 161 -2 152 -7z m762 -52
c516 -98 921 -413 1196 -932 56 -105 161 -368 177 -443 2 -11 11 -49 20 -85
39 -157 39 -173 -3 -65 -81 211 -146 341 -257 510 -100 154 -188 260 -334 405
-212 210 -399 344 -656 469 -153 75 -324 143 -393 157 -18 4 -34 10 -36 13 -7
11 171 -7 286 -29z m-359 -4 c417 -102 820 -330 1131 -641 356 -355 586 -789
675 -1276 36 -196 5 -475 -86 -772 -28 -90 -34 -120 -25 -129 9 -9 15 -9 26 2
16 17 58 152 91 295 20 83 23 91 19 45 -26 -327 -135 -659 -310 -951 -223
-370 -557 -682 -954 -891 -222 -117 -504 -216 -695 -244 -22 -3 -51 -8 -65
-10 -161 -25 -486 -26 -650 -1 -394 60 -787 228 -1115 476 -125 95 -350 317
-443 436 -118 153 -242 364 -306 520 -97 240 -100 255 -101 515 0 186 6 284
21 365 61 324 153 563 329 860 144 244 379 526 593 714 421 368 1060 654 1577
707 33 4 62 8 64 10 10 9 129 -7 224 -30z"/>
<path d="M1740 4407 c-186 -29 -343 -276 -394 -617 -13 -93 -16 -562 -3 -635
3 -16 8 -52 12 -80 38 -320 185 -832 331 -1153 13 -29 24 -58 24 -65 0 -7 4
-17 8 -23 5 -5 26 -49 47 -99 70 -165 352 -728 460 -920 88 -157 318 -505 334
-505 9 0 391 766 391 784 0 2 23 53 51 112 28 60 103 224 166 364 63 140 121
269 128 285 8 17 51 113 95 215 45 102 90 203 100 225 10 22 37 83 60 135 23
52 53 119 66 147 245 533 302 676 348 858 52 208 49 393 -9 504 -24 48 -79 97
-129 116 -99 38 -217 -3 -338 -118 -79 -76 -95 -96 -245 -322 -201 -301 -397
-647 -657 -1158 l-136 -269 -1 139 c-1 156 -4 234 -14 378 -12 181 -14 200
-21 250 -4 28 -7 53 -6 57 1 6 -21 168 -43 303 -11 74 -45 246 -60 310 -9 39
-19 81 -21 95 -17 85 -71 277 -99 348 -56 142 -161 265 -268 315 -63 30 -105
36 -177 24z"/>
</g>
</svg>
