<svg xmlns="http://www.w3.org/2000/svg" xmlns:xlink="http://www.w3.org/1999/xlink" width="1000" zoomAndPan="magnify" viewBox="0 0 750 149.999998" height="200" preserveAspectRatio="xMidYMid meet" version="1.0"><defs><g/><clipPath id="82469959e4"><path d="M 332.644531 48.828125 L 385 48.828125 L 385 101.328125 L 332.644531 101.328125 Z M 332.644531 48.828125 " clip-rule="nonzero"/></clipPath></defs><g clip-path="url(#82469959e4)"><path fill="#ffffff" d="M 384.59375 68.539062 C 384.320312 66.628906 383.839844 64.773438 383.144531 62.976562 C 383.109375 62.851562 383.03125 62.785156 382.90625 62.773438 C 382.792969 62.773438 382.71875 62.824219 382.683594 62.933594 C 382.660156 62.980469 382.652344 63.03125 382.671875 63.085938 C 384.027344 66.574219 384.613281 70.578125 384.363281 74.660156 C 384.132812 78.445312 383.207031 82.128906 381.691406 85.328125 C 380.410156 88.015625 378.722656 90.414062 376.632812 92.519531 C 374.59375 94.570312 372.296875 96.265625 369.738281 97.605469 C 367.238281 98.917969 364.605469 99.832031 361.832031 100.351562 C 360.25 100.652344 358.652344 100.800781 357.042969 100.804688 C 355.90625 100.804688 354.773438 100.722656 353.644531 100.566406 C 351.160156 100.214844 348.867188 99.5 346.835938 98.445312 C 345.742188 97.863281 344.707031 97.195312 343.722656 96.441406 C 341.90625 95.074219 340.292969 93.5 338.882812 91.710938 C 337.109375 89.464844 335.796875 86.96875 334.953125 84.226562 C 335.46875 85.363281 336.066406 86.449219 336.742188 87.496094 C 338.128906 89.625 339.789062 91.507812 341.71875 93.148438 C 343.640625 94.789062 345.75 96.128906 348.046875 97.167969 C 350.324219 98.199219 352.699219 98.878906 355.171875 99.207031 C 356.167969 99.339844 357.164062 99.402344 358.164062 99.402344 C 359.605469 99.402344 361.03125 99.273438 362.445312 99.011719 C 364.859375 98.566406 367.160156 97.789062 369.355469 96.679688 C 371.578125 95.558594 373.609375 94.15625 375.445312 92.46875 C 377.289062 90.78125 378.855469 88.859375 380.144531 86.707031 C 381.464844 84.503906 382.40625 82.144531 382.972656 79.636719 C 383.25 78.378906 383.429688 77.105469 383.503906 75.816406 C 383.589844 74.382812 383.542969 72.953125 383.371094 71.523438 C 383.371094 70.753906 383.335938 69.984375 383.265625 69.21875 C 382.925781 65.527344 381.855469 62.066406 380.050781 58.832031 C 378.269531 55.679688 375.882812 53.167969 373.148438 51.5625 C 370.605469 50.070312 367.550781 49.226562 364.316406 49.121094 C 364.066406 49.113281 363.816406 49.109375 363.566406 49.109375 C 363.054688 49.109375 362.539062 49.125 362.023438 49.160156 C 360.84375 48.960938 359.65625 48.847656 358.464844 48.828125 L 358.132812 48.828125 C 355.753906 48.832031 353.429688 49.199219 351.164062 49.9375 C 348.761719 50.726562 346.519531 51.84375 344.4375 53.285156 C 342.324219 54.738281 340.449219 56.449219 338.804688 58.421875 C 337.144531 60.394531 335.800781 62.566406 334.769531 64.9375 C 333.722656 67.351562 333.089844 69.867188 332.863281 72.492188 C 332.644531 75.195312 332.890625 77.851562 333.605469 80.46875 C 333.648438 80.632812 333.695312 80.796875 333.746094 80.960938 C 334.125 83.617188 334.941406 86.125 336.195312 88.488281 C 337.476562 90.867188 339.097656 92.980469 341.058594 94.828125 C 342.410156 96.117188 343.875 97.25 345.460938 98.230469 C 346.792969 99.042969 348.203125 99.6875 349.6875 100.167969 C 352.074219 100.941406 354.527344 101.324219 357.035156 101.3125 C 357.316406 101.3125 357.605469 101.3125 357.882812 101.300781 C 360.722656 101.199219 363.480469 100.671875 366.160156 99.714844 C 368.90625 98.742188 371.445312 97.386719 373.785156 95.644531 C 376.171875 93.867188 378.222656 91.753906 379.933594 89.308594 C 381.84375 86.550781 383.191406 83.539062 383.984375 80.269531 C 384.945312 76.402344 385.148438 72.492188 384.59375 68.539062 Z M 383.023438 75.839844 C 382.867188 78.40625 382.300781 80.878906 381.324219 83.253906 C 380.371094 85.554688 379.105469 87.65625 377.519531 89.5625 C 375.957031 91.4375 374.175781 93.058594 372.167969 94.433594 C 370.164062 95.808594 368.007812 96.882812 365.707031 97.652344 C 363.425781 98.417969 361.085938 98.832031 358.6875 98.894531 C 358.523438 98.894531 358.355469 98.898438 358.191406 98.898438 C 355.925781 98.894531 353.710938 98.570312 351.539062 97.929688 C 349.1875 97.238281 346.980469 96.230469 344.914062 94.90625 C 342.832031 93.578125 340.980469 91.984375 339.347656 90.128906 C 337.683594 88.234375 336.335938 86.136719 335.308594 83.832031 C 334.875 82.863281 334.507812 81.867188 334.207031 80.847656 C 333.890625 78.597656 333.914062 76.355469 334.28125 74.113281 C 334.738281 71.363281 335.699219 68.625 337.144531 65.972656 C 338.269531 63.921875 339.59375 62.019531 341.125 60.257812 C 341.988281 59.25 342.914062 58.304688 343.90625 57.421875 C 345.828125 55.726562 348.101562 54.210938 350.664062 52.917969 C 353.496094 51.472656 356.472656 50.484375 359.601562 49.949219 C 360.414062 49.824219 361.207031 49.730469 362 49.675781 L 362.15625 49.703125 C 364.554688 50.136719 366.835938 50.910156 369.007812 52.023438 C 371.230469 53.15625 373.246094 54.582031 375.0625 56.300781 C 376.875 58.015625 378.414062 59.957031 379.679688 62.117188 C 381.253906 64.792969 382.289062 67.664062 382.78125 70.730469 C 382.824219 70.984375 382.855469 71.242188 382.886719 71.496094 C 382.894531 72.753906 382.800781 74 382.605469 75.242188 C 382.355469 76.78125 381.96875 78.289062 381.441406 79.757812 C 381.410156 79.820312 381.414062 79.882812 381.453125 79.945312 C 381.503906 80.015625 381.574219 80.054688 381.664062 80.050781 C 381.789062 80.054688 381.871094 79.996094 381.90625 79.875 C 382.410156 78.464844 382.785156 77.015625 383.027344 75.535156 C 383.03125 75.636719 383.03125 75.738281 383.023438 75.839844 Z M 368.707031 50.265625 C 371.804688 51.09375 374.457031 52.675781 376.660156 55.015625 C 378.925781 57.421875 380.691406 60.558594 381.765625 64.085938 C 382.121094 65.25 382.394531 66.4375 382.585938 67.644531 C 382.382812 66.945312 382.152344 66.257812 381.890625 65.578125 C 380.90625 63.050781 379.566406 60.730469 377.871094 58.617188 C 376.273438 56.621094 374.425781 54.894531 372.332031 53.433594 C 370.289062 52 368.082031 50.886719 365.71875 50.089844 C 365.207031 49.917969 364.695312 49.765625 364.179688 49.628906 C 365.714844 49.664062 367.222656 49.878906 368.707031 50.265625 Z M 334.003906 68.632812 C 334.660156 66.164062 335.667969 63.851562 337.027344 61.699219 C 338.371094 59.570312 339.976562 57.664062 341.839844 55.976562 C 343.703125 54.292969 345.753906 52.894531 348 51.777344 C 350.207031 50.671875 352.527344 49.9375 354.960938 49.570312 C 356.011719 49.417969 357.0625 49.339844 358.121094 49.339844 C 358.683594 49.339844 359.246094 49.363281 359.804688 49.40625 C 358.15625 49.664062 356.539062 50.058594 354.957031 50.589844 C 351.90625 51.605469 349.058594 53.027344 346.410156 54.855469 C 345 55.816406 343.6875 56.894531 342.46875 58.09375 C 341.085938 59.480469 339.824219 60.972656 338.695312 62.574219 C 337.121094 64.777344 335.867188 67.15625 334.9375 69.707031 C 334.003906 72.289062 333.53125 74.957031 333.511719 77.707031 C 333.441406 77.25 333.386719 76.792969 333.347656 76.339844 C 333.121094 73.730469 333.339844 71.164062 334.003906 68.632812 Z M 334.003906 68.632812 " fill-opacity="1" fill-rule="nonzero"/></g><g fill="#2caeba" fill-opacity="1"><g transform="translate(373.151176, 111.95405)"><g><path d="M 29.15625 -73.515625 C 34.21875 -73.515625 38.625 -72.785156 42.375 -71.328125 C 46.125 -69.867188 49.628906 -67.644531 52.890625 -64.65625 L 46.125 -56.859375 C 43.5625 -59.003906 40.976562 -60.5625 38.375 -61.53125 C 35.769531 -62.507812 32.972656 -63 29.984375 -63 C 26.648438 -63 23.957031 -62.25 21.90625 -60.75 C 19.863281 -59.257812 18.84375 -57.160156 18.84375 -54.453125 C 18.84375 -52.648438 19.238281 -51.15625 20.03125 -49.96875 C 20.832031 -48.789062 22.273438 -47.679688 24.359375 -46.640625 C 26.441406 -45.609375 29.53125 -44.46875 33.625 -43.21875 C 40.707031 -40.988281 46.035156 -38.222656 49.609375 -34.921875 C 53.191406 -31.628906 54.984375 -26.828125 54.984375 -20.515625 C 54.984375 -16.210938 53.890625 -12.394531 51.703125 -9.0625 C 49.515625 -5.726562 46.367188 -3.125 42.265625 -1.25 C 38.171875 0.625 33.316406 1.5625 27.703125 1.5625 C 22.210938 1.5625 17.296875 0.675781 12.953125 -1.09375 C 8.617188 -2.863281 4.890625 -5.273438 1.765625 -8.328125 L 8.84375 -16.25 C 11.625 -13.882812 14.503906 -12.09375 17.484375 -10.875 C 20.472656 -9.664062 23.773438 -9.0625 27.390625 -9.0625 C 31.335938 -9.0625 34.523438 -10 36.953125 -11.875 C 39.390625 -13.75 40.609375 -16.382812 40.609375 -19.78125 C 40.609375 -21.863281 40.191406 -23.582031 39.359375 -24.9375 C 38.523438 -26.289062 37.101562 -27.503906 35.09375 -28.578125 C 33.082031 -29.660156 30.164062 -30.789062 26.34375 -31.96875 C 18.707031 -34.320312 13.1875 -37.164062 9.78125 -40.5 C 6.382812 -43.832031 4.6875 -48.207031 4.6875 -53.625 C 4.6875 -57.582031 5.726562 -61.050781 7.8125 -64.03125 C 9.894531 -67.019531 12.789062 -69.347656 16.5 -71.015625 C 20.21875 -72.679688 24.4375 -73.515625 29.15625 -73.515625 Z M 29.15625 -73.515625 "/></g></g></g><g fill="#2caeba" fill-opacity="1"><g transform="translate(431.458946, 111.95405)"><g><path d="M 46.546875 0 L 42.0625 -16.65625 L 18.21875 -16.65625 L 13.75 0 L -0.515625 0 L 21.859375 -71.953125 L 38.84375 -71.953125 L 61.125 0 Z M 20.921875 -27.078125 L 39.25 -27.078125 L 30.09375 -61.4375 Z M 20.921875 -27.078125 "/></g></g></g><g fill="#2caeba" fill-opacity="1"><g transform="translate(492.161506, 111.95405)"><g><path d="M 50.1875 -71.953125 L 48.734375 -61.75 L 22.171875 -61.75 L 22.171875 -41.65625 L 45.296875 -41.65625 L 45.296875 -31.453125 L 22.171875 -31.453125 L 22.171875 -10.3125 L 50.609375 -10.3125 L 50.609375 0 L 8.4375 0 L 8.4375 -71.953125 Z M 50.1875 -71.953125 "/></g></g></g><g fill="#2caeba" fill-opacity="1"><g transform="translate(547.345646, 111.95405)"><g><path d="M 61.53125 0 L 43.734375 0 L 19.0625 -58.203125 C 19.675781 -53.066406 20.140625 -48.414062 20.453125 -44.25 C 20.765625 -40.082031 20.921875 -35.117188 20.921875 -29.359375 L 20.921875 0 L 8.4375 0 L 8.4375 -71.953125 L 25.828125 -71.953125 L 50.921875 -13.640625 C 50.503906 -16.421875 50.085938 -20.082031 49.671875 -24.625 C 49.253906 -29.175781 49.046875 -33.707031 49.046875 -38.21875 L 49.046875 -71.953125 L 61.53125 -71.953125 Z M 61.53125 0 "/></g></g></g><g fill="#2caeba" fill-opacity="1"><g transform="translate(617.314979, 111.95405)"><g><path d="M 22.171875 -71.953125 L 22.171875 0 L 8.4375 0 L 8.4375 -71.953125 Z M 62.578125 -71.953125 L 37.6875 -39.359375 L 64.5625 0 L 48.203125 0 L 22.796875 -38.421875 L 47.6875 -71.953125 Z M 62.578125 -71.953125 "/></g></g></g><g fill="#2caeba" fill-opacity="1"><g transform="translate(681.14117, 111.95405)"><g><path d="M 36.03125 -73.515625 C 42.476562 -73.515625 48.0625 -72.054688 52.78125 -69.140625 C 57.507812 -66.222656 61.140625 -61.953125 63.671875 -56.328125 C 66.203125 -50.703125 67.46875 -43.9375 67.46875 -36.03125 C 67.46875 -28.1875 66.179688 -21.453125 63.609375 -15.828125 C 61.046875 -10.203125 57.40625 -5.894531 52.6875 -2.90625 C 47.96875 0.0703125 42.414062 1.5625 36.03125 1.5625 C 29.570312 1.5625 23.984375 0.101562 19.265625 -2.8125 C 14.546875 -5.726562 10.898438 -9.992188 8.328125 -15.609375 C 5.765625 -21.234375 4.484375 -28.003906 4.484375 -35.921875 C 4.484375 -43.691406 5.765625 -50.40625 8.328125 -56.0625 C 10.898438 -61.726562 14.5625 -66.050781 19.3125 -69.03125 C 24.070312 -72.019531 29.644531 -73.515625 36.03125 -73.515625 Z M 36.03125 -63 C 30.476562 -63 26.242188 -60.828125 23.328125 -56.484375 C 20.410156 -52.148438 18.953125 -45.296875 18.953125 -35.921875 C 18.953125 -17.941406 24.644531 -8.953125 36.03125 -8.953125 C 41.582031 -8.953125 45.796875 -11.101562 48.671875 -15.40625 C 51.554688 -19.707031 53 -26.582031 53 -36.03125 C 53 -45.394531 51.554688 -52.226562 48.671875 -56.53125 C 45.796875 -60.84375 41.582031 -63 36.03125 -63 Z M 36.03125 -63 "/></g></g></g><g fill="#000000" fill-opacity="1"><g transform="translate(-2.277328, 112.909187)"><g><path d="M 76.59375 0 L 63.171875 0 L 61.296875 -30.078125 C 60.671875 -40.828125 60.359375 -49.359375 60.359375 -55.671875 L 60.359375 -59.421875 L 47.25 -7.8125 L 34.234375 -7.8125 L 20.296875 -59.53125 C 20.429688 -54.945312 20.5 -51.476562 20.5 -49.125 C 20.5 -42.800781 20.289062 -36.3125 19.875 -29.65625 L 18.109375 0 L 4.78125 0 L 10.515625 -71.90625 L 28.203125 -71.90625 L 41 -21.546875 L 53.078125 -71.90625 L 70.96875 -71.90625 Z M 76.59375 0 "/></g></g></g><g fill="#000000" fill-opacity="1"><g transform="translate(79.09959, 112.909187)"><g><path d="M 46.515625 0 L 42.046875 -16.65625 L 18.21875 -16.65625 L 13.734375 0 L -0.515625 0 L 21.859375 -71.90625 L 38.8125 -71.90625 L 61.078125 0 Z M 20.921875 -27.0625 L 39.234375 -27.0625 L 30.078125 -61.390625 Z M 20.921875 -27.0625 "/></g></g></g><g fill="#000000" fill-opacity="1"><g transform="translate(139.768058, 112.909187)"><g><path d="M 30.90625 -28.828125 L 22.171875 -28.828125 L 22.171875 0 L 8.421875 0 L 8.421875 -71.90625 L 29.859375 -71.90625 C 48.867188 -71.90625 58.375 -64.863281 58.375 -50.78125 C 58.375 -46 57.191406 -42.046875 54.828125 -38.921875 C 52.472656 -35.796875 48.800781 -33.265625 43.8125 -31.328125 L 62.640625 0 L 46.828125 0 Z M 22.171875 -38.71875 L 30.703125 -38.71875 C 35.066406 -38.71875 38.375 -39.671875 40.625 -41.578125 C 42.882812 -43.484375 44.015625 -46.550781 44.015625 -50.78125 C 44.015625 -54.664062 42.851562 -57.492188 40.53125 -59.265625 C 38.207031 -61.035156 34.546875 -61.921875 29.546875 -61.921875 L 22.171875 -61.921875 Z M 22.171875 -38.71875 "/></g></g></g><g fill="#000000" fill-opacity="1"><g transform="translate(203.350284, 112.909187)"><g><path d="M 22.171875 -71.90625 L 22.171875 0 L 8.421875 0 L 8.421875 -71.90625 Z M 22.171875 -71.90625 "/></g></g></g><g fill="#000000" fill-opacity="1"><g transform="translate(233.944689, 112.909187)"><g><path d="M 61.5 0 L 43.703125 0 L 19.046875 -58.171875 C 19.671875 -53.035156 20.140625 -48.382812 20.453125 -44.21875 C 20.765625 -40.0625 20.921875 -35.101562 20.921875 -29.34375 L 20.921875 0 L 8.421875 0 L 8.421875 -71.90625 L 25.8125 -71.90625 L 50.890625 -13.625 C 50.472656 -16.40625 50.054688 -20.066406 49.640625 -24.609375 C 49.222656 -29.148438 49.015625 -33.675781 49.015625 -38.1875 L 49.015625 -71.90625 L 61.5 -71.90625 Z M 61.5 0 "/></g></g></g><g fill="#000000" fill-opacity="1"><g transform="translate(303.874723, 112.909187)"><g><path d="M 46.515625 0 L 42.046875 -16.65625 L 18.21875 -16.65625 L 13.734375 0 L -0.515625 0 L 21.859375 -71.90625 L 38.8125 -71.90625 L 61.078125 0 Z M 20.921875 -27.0625 L 39.234375 -27.0625 L 30.078125 -61.390625 Z M 20.921875 -27.0625 "/></g></g></g></svg>